<svg width="96" height="96" xmlns="http://www.w3.org/2000/svg" xmlns:xlink="http://www.w3.org/1999/xlink" overflow="hidden"><defs><clipPath id="clip0"><rect x="846" y="147" width="96" height="96"/></clipPath></defs><g clip-path="url(#clip0)" transform="translate(-846 -147)"><path d="M901.7 186.811C901.863 186.97 902.039 187.116 902.226 187.246 902.884 187.736 903.68 188.004 904.5 188.011L916 188.011C917.424 188.003 918.737 187.237 919.444 186 919.803 185.398 919.995 184.711 920 184.01 919.994 182.111 918.659 180.477 916.8 180.091 916.537 180.036 916.269 180.009 916 180.009L906.2 180.009C906.2 180.009 894.8 168.509 894.6 168.409 893.763 167.712 892.767 167.235 891.7 167.019 891.363 166.96 891.022 166.931 890.68 166.93 888.928 166.942 887.264 167.697 886.1 169.006L879.3 176.758 872.5 184.51C871.687 185.434 871.182 186.587 871.052 187.81 870.839 189.755 871.562 191.686 873 193.013 873.15 193.138 873.3 193.257 873.451 193.368 873.886 193.701 874.376 193.953 874.9 194.113L889.9 200.113 889.9 218.42C889.899 218.954 890.007 219.482 890.215 219.974 891.062 222.003 893.393 222.962 895.422 222.115 896.099 221.833 896.685 221.369 897.115 220.774 897.622 220.094 897.898 219.268 897.9 218.42L897.9 197.414C897.889 195.818 896.953 194.374 895.5 193.714L884.4 189.014 893.5 178.614ZM906.2 182.011 916 182.011C917.105 182.011 918 182.906 918 184.011 918 185.116 917.105 186.011 916 186.011L904.5 186.011C903.974 186.002 903.474 185.781 903.114 185.397L894.914 177.197 894.158 176.441 893.403 175.685 893.403 175.685 891.996 177.294 882.896 187.694 881.076 189.774 883.621 190.853 893.54 195.053 894.714 195.553C895.432 195.897 895.891 196.618 895.9 197.414L895.9 218.42C895.891 219.521 895.001 220.411 893.9 220.42 892.95 220.42 892.13 219.751 891.94 218.82 891.914 218.688 891.9 218.554 891.9 218.42L891.9 198.761 890.643 198.261 889.279 197.715 875.64 192.256 875.545 192.218 875.445 192.19C875.128 192.083 874.833 191.92 874.573 191.709 874.49 191.647 874.406 191.583 874.315 191.509 873.57 190.807 873.112 189.853 873.032 188.832 873.032 188.794 873.017 188.756 873.015 188.718 873.015 188.709 873.015 188.699 873.015 188.69 872.957 187.644 873.311 186.618 874 185.829L885.51 172.709 887.6 170.327C888.027 169.848 888.56 169.476 889.156 169.239 889.82 168.947 890.555 168.857 891.269 168.98 891.874 169.074 892.449 169.309 892.947 169.666 893.061 169.741 893.172 169.821 893.278 169.907L893.378 169.994C894.27 170.834 900.767 177.367 904.778 181.417L905.365 182.009Z"/><path d="M878.495 204.424C875.693 202.525 872.385 201.512 869 201.516L869 201.516C859.633 201.492 852.02 209.067 851.996 218.434 851.992 220.047 852.218 221.651 852.667 223.2 852.701 223.322 852.724 223.449 852.762 223.57 852.778 223.623 852.802 223.67 852.819 223.726 855.085 230.751 861.619 235.515 869 235.524L869 235.524C878.389 235.526 886.001 227.916 886.003 218.527 886.004 212.871 883.192 207.584 878.5 204.424ZM869 233.524C860.712 233.51 854.006 226.78 854.02 218.492 854.033 210.817 859.835 204.389 867.469 203.593 867.769 203.563 868.075 203.56 868.379 203.547 868.587 203.539 868.791 203.516 869 203.516 877.286 203.516 884.004 210.234 884.004 218.52 884.004 226.807 877.286 233.524 869 233.524Z"/><path d="M935.234 213.469C932.445 204.504 922.916 199.497 913.951 202.286 904.986 205.076 899.98 214.604 902.769 223.569 903.918 227.263 906.292 230.454 909.5 232.616 909.7 232.753 909.919 232.869 910.127 232.998 910.385 233.156 910.636 233.324 910.902 233.469 919.156 237.943 929.475 234.878 933.948 226.624 936.134 222.592 936.598 217.848 935.234 213.469ZM917.468 233.447C909.234 232.644 903.209 225.318 904.012 217.084 904.581 211.252 908.498 206.286 914.038 204.376 915.631 203.81 917.309 203.519 919 203.516 920.014 203.514 921.025 203.614 922.019 203.816 922.507 203.916 922.986 204.039 923.456 204.186 931.368 206.655 935.781 215.07 933.312 222.982 931.188 229.79 924.565 234.163 917.469 233.442Z"/><path d="M905 170.507C909.418 170.507 913 166.925 913 162.507 913 158.089 909.418 154.507 905 154.507 900.582 154.507 897 158.089 897 162.507 897 166.925 900.582 170.507 905 170.507ZM905 156.507C908.326 156.494 911.033 159.181 911.046 162.507 911.058 165.833 908.372 168.54 905.046 168.553 901.719 168.566 899.013 165.879 899 162.553 898.996 161.414 899.314 160.297 899.919 159.332 901.011 157.575 902.931 156.505 905 156.5Z"/></g></svg>